<svg width="32" height="32" viewBox="0 0 32 32" fill="none" xmlns="http://www.w3.org/2000/svg">
  <rect width="32" height="32" rx="6" fill="#2563eb"/>
  <path d="M9 10.5C9 9.67157 9.67157 9 10.5 9H13.5C14.3284 9 15 9.67157 15 10.5V13.5C15 14.3284 14.3284 15 13.5 15H10.5C9.67157 15 9 14.3284 9 13.5V10.5Z" fill="white"/>
  <path d="M17 10.5C17 9.67157 17.6716 9 18.5 9H21.5C22.3284 9 23 9.67157 23 10.5V13.5C23 14.3284 22.3284 15 21.5 15H18.5C17.6716 15 17 14.3284 17 13.5V10.5Z" fill="white"/>
  <path d="M9 18.5C9 17.6716 9.67157 17 10.5 17H13.5C14.3284 17 15 17.6716 15 18.5V21.5C15 22.3284 14.3284 23 13.5 23H10.5C9.67157 23 9 22.3284 9 21.5V18.5Z" fill="white"/>
  <path d="M17 18.5C17 17.6716 17.6716 17 18.5 17H21.5C22.3284 17 23 17.6716 23 18.5V21.5C23 22.3284 22.3284 23 21.5 23H18.5C17.6716 23 17 22.3284 17 21.5V18.5Z" fill="white"/>
</svg>
